<svg xmlns="http://www.w3.org/2000/svg" xmlns:xlink="http://www.w3.org/1999/xlink" width="100" height="100" viewBox="0 0 100 100"><g><g transform="translate(50 50) scale(0.69 0.69) rotate(0) translate(-50 -50)" style="fill:#7a7a7a"><svg fill="#7a7a7a" xmlns="http://www.w3.org/2000/svg" xmlns:xlink="http://www.w3.org/1999/xlink" viewBox="0 0 100 100" version="1.1" x="0px" y="0px"><title>AB Testing 2 Copy 17</title><desc>Created with Sketch.</desc><g stroke="none" stroke-width="1" fill="none" fill-rule="evenodd"><path d="M12,24 L12,74 L88,74 L88,24 L12,24 Z M11,21 L89,21 C90.1045695,21 91,21.8954305 91,23 L91,75 C91,76.1045695 90.1045695,77 89,77 L11,77 C9.8954305,77 9,76.1045695 9,75 L9,23 C9,21.8954305 9.8954305,21 11,21 Z" fill="#7a7a7a" fill-rule="nonzero"></path><path d="M22.5738796,60.2187888 L39.4261204,60.2187888 C39.4751761,59.8060218 39.5,59.3874982 39.5,58.9650002 C39.5,53.7083607 35.6620058,49.5 31,49.5 C26.3379942,49.5 22.5,53.7083607 22.5,58.9650002 C22.5,59.3874982 22.5248239,59.8060218 22.5738796,60.2187888 Z M19.8580619,62.0631693 C19.621031,61.0583238 19.5,60.0196781 19.5,58.9650002 C19.5,52.1100349 24.6163108,46.5 31,46.5 C37.3836892,46.5 42.5,52.1100349 42.5,58.9650002 C42.5,60.0196781 42.378969,61.0583238 42.1419381,62.0631693 L41.8693413,63.2187888 L20.1306587,63.2187888 L19.8580619,62.0631693 Z" fill="#7a7a7a" fill-rule="nonzero"></path><path d="M31.0250001,49.5500002 C26.8690573,49.5500002 23.5,46.1809429 23.5,42.0250001 C23.5,37.8690573 26.8690573,34.5 31.0250001,34.5 C35.1809429,34.5 38.5500002,37.8690573 38.5500002,42.0250001 C38.5500002,46.1809429 35.1809429,49.5500002 31.0250001,49.5500002 Z M31.0250001,46.5500002 C33.5240886,46.5500002 35.5500002,44.5240886 35.5500002,42.0250001 C35.5500002,39.5259115 33.5240886,37.5 31.0250001,37.5 C28.5259115,37.5 26.5,39.5259115 26.5,42.0250001 C26.5,44.5240886 28.5259115,46.5500002 31.0250001,46.5500002 Z" fill="#7a7a7a" fill-rule="nonzero"></path><rect fill="#7a7a7a" x="49" y="45" width="29" height="3" rx="1.5"></rect><rect fill="#7a7a7a" x="49" y="38" width="29" height="3" rx="1.5"></rect><rect fill="#7a7a7a" x="49" y="52" width="29" height="3" rx="1.5"></rect><rect fill="#7a7a7a" x="49" y="59" width="20" height="3" rx="1.5"></rect></g></svg></g></g></svg>