<svg xmlns="http://www.w3.org/2000/svg" xmlns:xlink="http://www.w3.org/1999/xlink" width="100" height="100" viewBox="0 0 100 100"><g><g transform="translate(50 50) scale(0.69 0.69) rotate(0) translate(-50 -50)" style="fill:#7a7a7a"><svg fill="#7a7a7a" xmlns="http://www.w3.org/2000/svg" xmlns:xlink="http://www.w3.org/1999/xlink" version="1.1" x="0px" y="0px" viewBox="0 0 100 100" enable-background="new 0 0 100 100" xml:space="preserve"><path fill="none" d="M55.557,59.588c-2.475,2.473-2.475,6.499,0,8.971c2.471,2.473,6.496,2.473,8.969,0  c2.474-2.472,2.477-6.5,0-8.971C62.052,57.113,58.027,57.115,55.557,59.588z"></path><path fill="none" d="M29.778,33.764c-2.476,2.472-2.476,6.499,0,8.969c2.471,2.474,6.494,2.474,8.966,0  c2.474-2.47,2.478-6.499,0-8.969C36.272,31.289,32.249,31.292,29.778,33.764z"></path><path fill="none" d="M6.184,57.355c-2.476,2.475-2.476,6.5,0,8.971c2.47,2.474,6.493,2.474,8.966,0c2.474-2.471,2.477-6.498,0-8.971  C12.678,54.881,8.654,54.887,6.184,57.355z"></path><path d="M94.553,30.021c-3.771-3.768-9.904-3.768-13.675,0c-3.36,3.358-3.719,8.589-1.092,12.357L65.824,56.34  c-3.359-2.512-7.982-2.557-11.387-0.133L42.109,43.875c2.707-3.775,2.376-9.073-1.011-12.462c-3.772-3.767-9.905-3.767-13.676,0  c-3.393,3.394-3.722,8.695-1.008,12.471L16.299,53.998c-3.777-2.71-9.078-2.382-12.471,1.008c-3.77,3.771-3.77,9.904,0,13.674  c3.774,3.768,9.904,3.768,13.672,0c3.371-3.369,3.719-8.623,1.067-12.394L28.703,46.15c3.327,2.339,7.796,2.337,11.119-0.004  l12.34,12.34c-2.68,3.773-2.34,9.047,1.041,12.425c3.773,3.769,9.902,3.769,13.673,0c3.324-3.323,3.713-8.483,1.177-12.243  l13.992-13.993c3.779,2.741,9.104,2.421,12.505-0.98C98.32,39.925,98.32,33.79,94.553,30.021z M15.15,66.326  c-2.473,2.474-6.496,2.474-8.966,0c-2.476-2.471-2.476-6.496,0-8.971c2.47-2.469,6.494-2.475,8.966,0  C17.627,59.828,17.624,63.855,15.15,66.326z M38.744,42.733c-2.472,2.474-6.495,2.474-8.966,0c-2.476-2.47-2.476-6.497,0-8.969  c2.471-2.472,6.494-2.475,8.966,0C41.222,36.234,41.218,40.263,38.744,42.733z M64.525,68.559c-2.473,2.473-6.498,2.473-8.969,0  c-2.475-2.472-2.475-6.498,0-8.971c2.471-2.473,6.495-2.475,8.969,0C67.002,62.059,66.999,66.087,64.525,68.559z M86.851,41.127  l-3.866-3.859l1.499-1.498l2.367,2.362l5.973-5.963l1.5,1.496L86.851,41.127z"></path></svg></g></g></svg>